<svg id="Layer_1" enable-background="new -17.5 -17.5 100 100" height="100" viewBox="-17.5 -17.5 100 100" width="100" xmlns="http://www.w3.org/2000/svg"><circle cx="32.5" cy="32.5" fill="#fec553" r="50"/><g fill="#fff"><path d="m33.791 41.398-1.291-2.613-1.291 2.613c-.219.443-.641.75-1.13.82l-2.885.42 2.088 2.035c.353.344.515.84.431 1.328l-.492 2.873 2.58-1.357c.219-.115.458-.172.698-.172.239 0 .479.057.698.172l2.58 1.357-.492-2.873c-.083-.488.078-.984.432-1.328l2.088-2.035-2.885-.418c-.488-.072-.911-.378-1.129-.822z"/><path d="m58.85 2.729c-.002-.053-.008-.105-.016-.158-.008-.047-.018-.094-.027-.139-.013-.047-.027-.092-.043-.138-.017-.046-.033-.092-.056-.136-.021-.043-.044-.085-.067-.126-.024-.041-.051-.081-.078-.12-.028-.04-.062-.077-.095-.114-.032-.036-.063-.07-.1-.103-.035-.032-.072-.062-.11-.09-.042-.032-.086-.062-.131-.089-.021-.012-.037-.027-.059-.039-.021-.011-.041-.016-.062-.026-.048-.023-.097-.043-.146-.061-.047-.017-.094-.031-.141-.043-.045-.011-.091-.02-.137-.027-.057-.008-.109-.014-.164-.017-.021-.001-.042-.006-.064-.006h-16.556c-.034 0-.067.008-.103.01-.03.002-.062.005-.09.009-.069.009-.137.021-.201.04-.026.007-.053.015-.078.024-.064.022-.129.047-.189.077-.027.014-.052.028-.076.043-.059.033-.113.068-.166.108-.024.02-.049.04-.074.062-.049.042-.096.087-.139.136-.021.024-.041.049-.062.074-.042.054-.08.111-.115.171-.008.014-.019.025-.026.039l-6.979 12.914-6.978-12.916c-.008-.015-.02-.026-.028-.041-.035-.06-.073-.116-.115-.17-.019-.023-.038-.047-.059-.07-.045-.05-.093-.097-.145-.141-.021-.019-.044-.038-.067-.056-.055-.042-.112-.079-.172-.113-.023-.013-.046-.026-.07-.038-.063-.031-.127-.057-.194-.079-.024-.008-.05-.017-.075-.023-.065-.018-.133-.031-.2-.04-.031-.004-.063-.007-.094-.009-.034-.002-.066-.01-.102-.01h-16.556c-.021 0-.042.005-.063.006-.057.003-.11.009-.166.016-.047.008-.093.015-.138.028-.047.011-.091.026-.137.043-.052.019-.101.039-.15.062-.02.01-.041.015-.061.025s-.035.025-.055.038c-.047.027-.091.057-.134.09-.038.028-.074.058-.108.088-.035.035-.07.07-.103.106-.032.036-.063.072-.091.11-.029.04-.056.081-.08.123s-.046.081-.067.123c-.021.045-.04.091-.056.138-.016.045-.03.09-.042.136-.01.047-.02.092-.027.14-.009.054-.014.105-.017.159-.001.023-.005.044-.005.068 0 .022.006.043.007.065.001.055.007.108.016.161.007.047.017.094.027.14.011.046.026.092.041.137.019.052.039.1.062.15.011.02.015.04.025.061l14.057 26.016c-4.342 3.531-7.125 8.91-7.125 14.932 0 10.609 8.634 19.244 19.245 19.244s19.246-8.635 19.246-19.244c0-6.021-2.782-11.398-7.124-14.931l14.054-26.017c.01-.019.016-.039.024-.058.024-.05.045-.101.063-.154.016-.044.029-.088.041-.133.012-.047.021-.095.028-.144.008-.053.015-.105.017-.158 0-.022.006-.044.006-.066 0-.025-.003-.047-.005-.069zm-16.775 39.937-3.699 3.605.874 5.092c.098.563-.135 1.133-.598 1.469-.262.188-.57.285-.881.285-.239 0-.479-.057-.699-.172l-4.572-2.404-4.572 2.404c-.507.266-1.118.221-1.58-.113-.463-.336-.693-.904-.598-1.469l.874-5.092-3.699-3.605c-.408-.398-.556-.996-.379-1.539.178-.543.646-.938 1.211-1.021l5.112-.742 2.287-4.633c.253-.512.773-.836 1.345-.836s1.093.324 1.345.836l2.287 4.633 5.112.742c.563.082 1.034.479 1.211 1.021s.028 1.141-.381 1.539z"/></g></svg>